# xmcd CD database file
#
# Track frame offsets:
#	150
#	14307
#	34856
#	48200
#	64047
#	78535
#	100812
#	128969
#	160721
#	188425
#	201192
#	217079
#	235961
#	264078
#	285653
#
# Disc length: 4133 seconds
#
# Revision: 0
# Processed by: cddbd v1.5.2PL0 Copyright (c) Steve Scherf et al.
# Submitted via: CDex 1.70beta2
#
DISCID=c810230f
DTITLE=Horace Silver - Opus de funk
DYEAR=1997
DGENRE=Jazz
TTITLE0=Phineas Newborn Jr - Cookin' at the continental
TTITLE1=Milt Jackson - Buhaina
TTITLE2=Wes Montgomery - Ecaroh
TTITLE3=Eddie Jefferson - Filthy Mc Nasty
TTITLE4=Art Pepper - Opus de funk
TTITLE5=Ray Brown - Sister Sadie
TTITLE6=Tommy Flanagan - Peace
TTITLE7=Vince Guaraldi, Bola Sete - Moon Rays
TTITLE8=Richar Groove Holmes - Song for my father
TTITLE9=Eddie Jefferson - Psychedelic Sally
TTITLE10=Barney Kessel' Shelly Manne, Ray Brown - Doodlin'
TTITLE11=Shirley Scott - Senor Blues
TTITLE12=Blue Mitchell - Nicas's Dream
TTITLE13=Jack McDuff - Strollin
TTITLE14=Eddie Jefferson - The Preacher
EXTD=YEAR: 1997
EXTT0=
EXTT1=
EXTT2=
EXTT3=
EXTT4=
EXTT5=
EXTT6=
EXTT7=
EXTT8=
EXTT9=
EXTT10=
EXTT11=
EXTT12=
EXTT13=
EXTT14=
PLAYORDER=
